<svg width="54" height="40" viewBox="0 0 54 40" fill="none" xmlns="http://www.w3.org/2000/svg">
<path d="M29.3354 8.02347C37.7841 8.02347 42.5772 13.6151 43.2744 20.3693H43.4878C48.9247 20.3693 53.3324 24.7663 53.3324 30.1887C53.3324 35.6123 48.9247 40.008 43.4878 40.008H15.183C9.74601 40.008 5.33831 35.6123 5.33831 30.1887C5.33831 24.7663 9.74735 20.3693 15.1843 20.3693H15.3976C16.0989 13.5711 20.8866 8.02347 29.3354 8.02347ZM21.3319 7.22787e-07C23.3823 -0.000694437 25.4018 0.500062 27.2144 1.45863C29.027 2.4172 30.5776 3.8045 31.7312 5.49963C30.9349 5.40358 30.1335 5.35594 29.3314 5.35698C21.2279 5.35698 15.3643 9.94067 13.3858 16.8429L13.2791 17.2282L13.1258 17.8615L12.5738 17.9641C10.4751 18.4079 8.52583 19.3842 6.91355 20.7992C5.30126 22.2142 4.08019 24.0202 3.36777 26.0436C1.93093 24.9224 0.879966 23.3807 0.36154 21.6335C-0.156887 19.8863 -0.116904 18.0208 0.475909 16.2974C1.06872 14.5741 2.18478 13.0787 3.66834 12.0202C5.15189 10.9616 6.92892 10.3926 8.75141 10.3926H8.94073C9.45606 7.48063 10.9803 4.84307 13.2462 2.94269C15.512 1.04231 18.3746 0.000491777 21.3319 7.22787e-07Z" fill="black"/>
</svg>
